<?xml version="1.0" encoding="iso-8859-1"?>
<!-- Generator: Adobe Illustrator 19.0.0, SVG Export Plug-In . SVG Version: 6.00 Build 0)  -->
<svg version="1.1" id="Capa_1" xmlns="http://www.w3.org/2000/svg" xmlns:xlink="http://www.w3.org/1999/xlink" x="0px" y="0px"
	 viewBox="0 0 480 480" style="enable-background:new 0 0 480 480;" xml:space="preserve">
<path style="fill:#FFC107;" d="M392.995,96l81.248-67.712c6.786-5.659,7.7-15.749,2.041-22.535
	c-3.038-3.643-7.537-5.751-12.281-5.753h-256c-8.837,0-16,7.163-16,16v160c0,8.837,7.163,16,16,16h256
	c8.837-0.004,15.997-7.171,15.993-16.007c-0.002-4.744-2.109-9.242-5.753-12.281L392.995,96z"/>
<ellipse style="fill:#2196F3;" cx="208.003" cy="400" rx="208" ry="80"/>
<path d="M208.003,416c-8.837,0-16-7.163-16-16V16c0-8.837,7.163-16,16-16s16,7.163,16,16v384
	C224.003,408.837,216.84,416,208.003,416z"/>
<path d="M464.003,192h-256c-8.837,0-16-7.163-16-16V16c0-8.837,7.163-16,16-16h256C472.84,0.004,480,7.171,479.996,16.007
	c-0.002,4.744-2.109,9.242-5.753,12.281L392.995,96l81.248,67.712c6.786,5.659,7.7,15.749,2.041,22.535
	C473.246,189.891,468.747,191.998,464.003,192z M224.003,160h195.808l-62.048-51.712c-6.786-5.659-7.7-15.749-2.041-22.535
	c0.617-0.74,1.3-1.423,2.041-2.041L419.811,32H224.003V160z"/>
<path d="M208.003,480c-103.36,0-208-27.456-208-80c0-37.312,53.152-65.76,142.144-76.064c8.784-1.025,16.735,5.264,17.76,14.048
	s-5.264,16.735-14.048,17.76C65.411,365.024,32.003,389.152,32.003,400c0,16.288,62.112,48,176,48s176-31.712,176-48
	c0-10.848-33.408-34.976-113.856-44.256c-8.784-1.025-15.073-8.976-14.048-17.76s8.976-15.073,17.76-14.048
	C362.851,334.24,416.003,362.688,416.003,400C416.003,452.544,311.363,480,208.003,480z"/>
<g>
</g>
<g>
</g>
<g>
</g>
<g>
</g>
<g>
</g>
<g>
</g>
<g>
</g>
<g>
</g>
<g>
</g>
<g>
</g>
<g>
</g>
<g>
</g>
<g>
</g>
<g>
</g>
<g>
</g>
</svg>
